<?xml version="1.0" standalone="no"?><!DOCTYPE svg PUBLIC "-//W3C//DTD SVG 1.1//EN" "http://www.w3.org/Graphics/SVG/1.1/DTD/svg11.dtd"><svg t="1719408775111" class="icon" viewBox="0 0 1024 1024" version="1.1" xmlns="http://www.w3.org/2000/svg" p-id="4385" xmlns:xlink="http://www.w3.org/1999/xlink" width="200" height="200"><path d="M261.248 188.48l0.192-0.256 0.768-1.152 4.48-5.952v213.568h-32a32 32 0 0 0 0 64h128a32 32 0 1 0 0-64h-32V166.4c0-10.432 0-22.336-1.792-31.872a51.456 51.456 0 0 0-8.256-20.288 42.432 42.432 0 0 0-22.336-16.192c-18.368-5.76-34.56 1.536-43.392 6.784-9.728 5.76-18.112 13.568-24.384 20.16a221.568 221.568 0 0 0-22.272 27.52l-0.192 0.256a32 32 0 0 0 53.184 35.648zM704 138.688a32 32 0 0 1 32 32v616.96l0.256-0.256c8.96-10.624 17.792-21.76 26.048-32.32l1.92-2.432a404.48 404.48 0 0 1 23.488-28.288 32 32 0 1 1 45.888 44.608c-3.84 3.904-9.984 11.648-19.072 23.232l-2.048 2.56c-8.064 10.368-17.6 22.4-27.392 34.048a313.216 313.216 0 0 1-34.048 35.2 113.792 113.792 0 0 1-19.648 13.824 58.496 58.496 0 0 1-27.392 7.488 58.496 58.496 0 0 1-27.392-7.488 113.792 113.792 0 0 1-19.712-13.76 313.408 313.408 0 0 1-33.984-35.264c-9.792-11.584-19.328-23.68-27.456-34.048l-1.984-2.56a369.024 369.024 0 0 0-19.072-23.232 32 32 0 1 1 45.888-44.608c6.656 6.912 15.36 17.92 23.488 28.288l1.92 2.432c8.256 10.496 17.024 21.76 26.048 32.32l0.256 0.32V170.688a32 32 0 0 1 32-32zM296.96 565.312c-18.688 0-35.328 0-48.832 1.6-14.464 1.728-30.08 5.696-43.392 17.28-13.888 12.16-19.2 27.392-21.504 41.984-1.92 12.608-1.92 27.968-1.92 43.84v3.968c0 15.872 0 31.232 1.92 43.84 2.24 14.592 7.68 29.824 21.504 41.984 13.248 11.584 28.928 15.552 43.392 17.28 13.44 1.6 30.144 1.6 48.768 1.6h55.04v5.312c0 27.392 0 44.352-1.92 56.576-1.664 10.88-4.096 13.44-5.824 14.912-2.368 2.112-7.104 4.992-21.76 6.656-15.104 1.792-35.456 1.856-66.432 1.856h-42.688a32 32 0 1 0 0 64h44.544c28.608 0 52.8 0 72.128-2.304 20.224-2.368 39.936-7.68 56.32-22.016 17.024-14.848 23.936-33.728 26.944-53.376 2.752-17.728 2.752-39.616 2.752-64v-116.288c0-15.872 0-31.232-1.92-43.84-2.24-14.592-7.68-29.824-21.504-41.984-13.248-11.584-28.928-15.552-43.392-17.28-13.44-1.6-30.144-1.6-48.768-1.6h-3.52zM352 672v42.688h-53.312c-20.928 0-33.792-0.064-43.136-1.152a34.048 34.048 0 0 1-8.256-1.728 26.048 26.048 0 0 1-0.768-3.712 277.76 277.76 0 0 1-1.216-36.096c0-18.624 0.128-28.928 1.216-36.096a26.24 26.24 0 0 1 0.768-3.712 33.92 33.92 0 0 1 8.32-1.728c9.28-1.088 22.144-1.152 43.072-1.152 20.864 0 33.728 0.064 43.072 1.152a33.92 33.92 0 0 1 8.256 1.728 26.24 26.24 0 0 1 0.768 3.712c1.088 7.168 1.216 17.472 1.216 36.096z" fill="#333333" p-id="4386"></path></svg>