
<svg t="1733147410776" class="icon" viewBox="0 0 1024 1024" version="1.1" xmlns="http://www.w3.org/2000/svg" p-id="7896" width="200" height="200"><path d="M992.17 77h-960c-16.57 0-30 13.43-30 30v810c0 0.21 0.01 0.42 0.02 0.63 0.01 0.26 0.01 0.51 0.02 0.77 0.01 0.29 0.04 0.58 0.06 0.87 0.02 0.2 0.03 0.4 0.05 0.6 0.03 0.36 0.08 0.71 0.13 1.07 0.02 0.12 0.03 0.25 0.05 0.37 0.06 0.42 0.13 0.84 0.21 1.26l0.03 0.17c0.09 0.47 0.19 0.93 0.31 1.39v0.01c0.59 2.4 1.46 4.68 2.58 6.81l0.03 0.06a42.453 42.453 0 0 0 0.73 1.31c0.2 0.34 0.42 0.68 0.63 1.01 0.06 0.09 0.11 0.17 0.16 0.26 0.2 0.3 0.4 0.59 0.61 0.88 0.08 0.11 0.16 0.23 0.24 0.34 0.19 0.26 0.39 0.51 0.59 0.76 0.11 0.14 0.21 0.28 0.32 0.41 0.19 0.23 0.38 0.45 0.58 0.68 0.13 0.15 0.25 0.3 0.39 0.45 0.19 0.21 0.4 0.42 0.6 0.63 0.13 0.13 0.25 0.27 0.38 0.4l0.04 0.04c0.22 0.22 0.45 0.44 0.68 0.66 0.13 0.12 0.25 0.24 0.37 0.36a29.901 29.901 0 0 0 17.21 7.66h0.02c0.48 0.05 0.96 0.08 1.45 0.11 0.5 0.03 1 0.04 1.51 0.04h960c16.57 0 30-13.43 30-30V107c0-16.57-13.43-30-30-30z m-30 60v547.57L768.6 493.46c-19.81-19.56-50.03-22.76-73.48-7.79-2.37 1.51-4.62 3.22-7.08 5.37L479.55 672.71 401.13 567.1c-8.26-11.12-20.68-18.41-34.07-20-13.13-1.56-26.1 2.06-36.53 10.17l-0.43 0.34L62.17 773.83V137h900z m0 750H62.39l0.26-36.45 296.53-239.3 91.54 123.27a30.032 30.032 0 0 0 20.86 11.94c8.32 0.9 16.63-1.71 22.93-7.21l232.46-202.57 235.2 232.2V887z" p-id="7897"></path><path d="M292.17 437c60.65 0 110-49.35 110-110s-49.35-110-110-110-110 49.35-110 110 49.35 110 110 110z m0-160c27.57 0 50 22.43 50 50s-22.43 50-50 50-50-22.43-50-50 22.43-50 50-50z" p-id="7898"></path></svg>