<svg t="1719641794710" class="icon" viewBox="0 0 1024 1024" version="1.1" xmlns="http://www.w3.org/2000/svg" p-id="5123" width="200" height="200"><path d="M828.5184 461.243733l3.003733 0.6656c39.765333 10.922667 76.322133 30.72 106.752 57.719467l5.632 5.137067c6.656 6.280533 9.966933 15.189333 8.96 24.132266l-5.563733 49.664c-0.341333 3.072 1.3824 5.973333 4.3008 7.202134l47.274667 20.1728c7.662933 3.2768 13.533867 9.454933 16.298666 17.032533l0.802134 2.56c10.069333 38.792533 10.666667 79.274667 1.774933 118.254933l-1.774933 7.287467a29.525333 29.525333 0 0 1-17.117867 19.6096l-47.274667 20.1728a6.9632 6.9632 0 0 0-4.266666 7.202133l5.563733 49.629867c0.904533 8.055467-1.706667 16.059733-7.082667 22.152533l-1.8944 1.962667a266.939733 266.939733 0 0 1-104.96 60.706133l-7.424 2.167467a31.146667 31.146667 0 0 1-5.444266 0.938667l-2.7648 0.119466c-6.417067 0-12.680533-1.979733-17.8688-5.632l-41.6768-29.5424a7.441067 7.441067 0 0 0-8.584534 0l-41.693866 29.525334c-6.673067 4.727467-15.018667 6.570667-23.074134 5.205333l-3.003733-0.6656a267.605333 267.605333 0 0 1-106.752-57.719467l-5.632-5.137066a28.706133 28.706133 0 0 1-8.977067-24.132267l5.5808-49.629867a6.980267 6.980267 0 0 0-4.3008-7.202133l-47.274666-20.155733a29.6448 29.6448 0 0 1-16.298667-17.0496l-0.802133-2.56a249.429333 249.429333 0 0 1-1.774934-118.254934l1.774934-7.287466a29.525333 29.525333 0 0 1 17.117866-19.592534l47.2576-20.1728a6.980267 6.980267 0 0 0 4.3008-7.202133l-5.5808-49.629867a28.6208 28.6208 0 0 1 7.0656-22.1696l1.911467-1.962666a266.973867 266.973867 0 0 1 104.96-60.706134l7.424-2.1504a31.044267 31.044267 0 0 1 26.0608 4.539734l41.693867 29.525333c2.56 1.826133 6.0416 1.826133 8.584533 0l41.693867-29.525333c6.656-4.727467 15.018667-6.570667 23.074133-5.205334z m0.4608 62.702934l-29.371733 20.957866a69.12 69.12 0 0 1-80.264534 0L689.954133 523.946667a206.916267 206.916267 0 0 0-62.600533 35.293866l3.925333 35.191467c3.2768 28.689067-12.970667 56.149333-40.1408 67.720533l-33.28 14.301867a196.437333 196.437333 0 0 0 0 70.4512l33.28 14.301867c27.153067 11.5712 43.4176 39.0144 40.1408 67.720533l-3.959466 35.191467a206.848 206.848 0 0 0 62.600533 35.293866l29.3888-20.957866a68.932267 68.932267 0 0 1 35.84-12.6976l4.317867-0.136534c14.4384 0 28.501333 4.5056 40.1408 12.834134l29.371733 20.957866a206.7456 206.7456 0 0 0 62.600533-35.293866l-3.925333-35.208534c-3.2768-28.689067 12.970667-56.132267 40.1408-67.720533l33.28-14.250667a196.437333 196.437333 0 0 0 0-70.4512l-33.28-14.336c-27.153067-11.588267-43.4176-39.031467-40.1408-67.720533l3.925333-35.191467a206.762667 206.762667 0 0 0-62.600533-35.293866zM936.1408 119.466667C975.069867 119.466667 1006.933333 150.186667 1006.933333 187.733333v204.8c0 20.48-14.165333 34.133333-35.396266 34.133334-21.230933 0-33.041067-13.653333-33.041067-34.133334V187.733333H70.792533v614.4h352.7168c21.230933 0 35.396267 13.653333 35.396267 34.133334s-14.165333 34.133333-35.396267 34.133333H70.792533C31.863467 870.4 0 839.68 0 802.133333V187.733333c0-37.546667 31.863467-68.266667 70.792533-68.266666h865.348267zM759.466667 580.266667c70.587733 0 128 57.412267 128 128S830.0544 836.266667 759.466667 836.266667 631.466667 778.8544 631.466667 708.266667s57.412267-128 128-128z m0 59.733333a68.266667 68.266667 0 1 0 68.181333 71.68l0.085333-3.413333a68.352 68.352 0 0 0-68.266666-68.266667zM356.744533 529.066667c21.469867 0 35.7888 13.653333 35.7888 34.133333s-14.318933 34.133333-35.7888 34.133333H172.322133C150.852267 597.333333 136.533333 583.68 136.533333 563.2s14.318933-34.133333 35.7888-34.133333h184.4224z m0-119.466667c21.469867 0 35.7888 13.653333 35.7888 34.133333s-14.318933 34.133333-35.7888 34.133334H172.322133C150.852267 477.866667 136.533333 464.213333 136.533333 443.733333s14.318933-34.133333 35.7888-34.133333h184.4224z m68.676267-136.533333C446.634667 273.066667 460.8 286.72 460.8 307.2s-14.165333 34.133333-35.3792 34.133333H171.912533C150.698667 341.333333 136.533333 327.68 136.533333 307.2s14.165333-34.133333 35.3792-34.133333h253.508267z" p-id="5124"></path></svg>