<svg t="1734249589607" class="icon" viewBox="0 0 1133 1024" version="1.1" xmlns="http://www.w3.org/2000/svg" p-id="6576" width="200" height="200"><path d="M459.01274 600.277496l-84.758436-42.3618a22.504706 22.504706 0 0 0-21.1809 0l-84.758435 42.3618c-14.108987 6.967401-35.324724-3.483701-31.77135-21.1809l14.108988-95.348885c0-6.967401 0-14.108987-6.967402-17.662362l-70.614611-67.096074a22.400195 22.400195 0 0 1 10.451102-38.843262l95.348886-14.108987a30.029499 30.029499 0 0 0 17.662362-10.451102l42.361799-88.276973a20.902204 20.902204 0 0 1 38.843262 0l42.361799 84.758435a19.404212 19.404212 0 0 0 17.662362 10.451102l95.348885 14.108988a22.051825 22.051825 0 0 1 14.108988 35.324724l-67.096074 67.096073a26.963843 26.963843 0 0 0-6.967401 17.662362l17.662362 95.348886a23.689164 23.689164 0 0 1-31.806186 28.217975z" p-id="6577"></path><path d="M1069.87964 0.001045H63.543047A63.29884 63.29884 0 0 0 0.000348 63.543744v688.553424a63.29884 63.29884 0 0 0 63.542699 63.542699h278.939908v120.048323H190.663282a46.751262 46.751262 0 0 0-45.915174 45.915174 43.790117 43.790117 0 0 0 45.915174 42.361799h752.096123a45.915174 45.915174 0 1 0 0-91.795511h-151.819672v-120.048323h278.939907a63.29884 63.29884 0 0 0 63.542699-63.542699V63.543744A63.29884 63.29884 0 0 0 1069.87964 0.001045z m-3.4837 748.577585H67.096422V67.097119h995.746143v681.481511h3.483701z" p-id="6578"></path><path d="M914.54143 328.374664h-346.03598a35.324724 35.324724 0 1 1 0-70.614611h346.03598a33.373852 33.373852 0 0 1 35.324724 35.324724 35.394398 35.394398 0 0 1-35.324724 35.289887z m0 144.782597H674.444785a35.324724 35.324724 0 1 1 0-70.614611h240.096645a33.373852 33.373852 0 0 1 35.324724 35.324724 35.394398 35.394398 0 0 1-35.324724 35.289887z m0 134.192147H674.444785a35.324724 35.324724 0 1 1 0-70.614611h240.096645a33.373852 33.373852 0 0 1 35.324724 35.324724 35.394398 35.394398 0 0 1-35.324724 35.25505z" p-id="6579"></path></svg>