<svg t="1739081195147" class="icon" viewBox="0 0 1024 1024" version="1.1" xmlns="http://www.w3.org/2000/svg" p-id="4991" width="200" height="200"><path d="M478.765757 822.427093H325.117592c-16.617121 0-30.344309-13.486359-30.344309-30.344308v-48.406397c0-16.617121 13.486359-30.344309 30.344309-30.344309h153.648165c16.617121 0 30.344309 13.486359 30.344309 30.344309v48.406397c0 16.617121-13.727187 30.344309-30.344309 30.344308zM325.117592 727.78175c-8.669802 0-15.894638 7.224835-15.894638 15.894638v48.406397c0 8.669802 7.224835 15.894638 15.894638 15.894637h153.648165c8.669802 0 15.894638-7.224835 15.894638-15.894637v-48.406397c0-8.669802-7.224835-15.894638-15.894638-15.894638H325.117592z" p-id="4992"></path><path d="M495.142051 757.162747h-182.306679c-1.926623 0-3.612418-1.685795-3.612418-3.612418s1.685795-3.612418 3.612418-3.612417h182.306679c1.926623 0 3.612418 1.685795 3.612417 3.612417s-1.685795 3.612418-3.612417 3.612418zM560.647225 279.841957c-1.204139 0-2.408278-0.240828-3.612418-0.963312l-81.64064-47.443085c-3.37159-1.926623-4.575729-6.502352-2.649106-9.873942 1.926623-3.37159 6.502352-4.575729 9.873942-2.649106l81.64064 47.443085c3.37159 1.926623 4.575729 6.502352 2.649106 9.873942-1.444967 2.167451-3.853246 3.612418-6.261524 3.612418zM533.674506 307.296331c-1.204139 0-2.408278-0.240828-3.612418-0.963311l-63.578551-36.846661c-3.37159-1.926623-4.575729-6.502352-2.649106-9.873941 1.926623-3.37159 6.502352-4.575729 9.873942-2.649107l63.578551 36.846661c3.37159 1.926623 4.575729 6.502352 2.649106 9.873941-1.204139 2.408278-3.612418 3.612418-6.261524 3.612418zM292.124177 452.033866l-11.078081-9.151458 149.79492-179.8984c2.649106-3.130762 7.224835-3.37159 10.11477-0.963312 3.130762 2.649106 3.37159 7.224835 0.963311 10.11477l-149.79492 179.8984zM245.88523 445.531515l-11.07808-9.151459 160.873001-193.143932c2.649106-3.130762 7.224835-3.37159 10.114769-0.963311 3.130762 2.649106 3.37159 7.224835 0.963311 10.114769L245.88523 445.531515z" p-id="4993"></path><path d="M442.159925 274.543744c-2.167451 0-4.575729-0.240828-6.74318-0.481656-26.250235-3.612418-44.793979-28.176858-40.940734-54.427093 3.612418-26.250235 28.176858-44.793979 54.427093-40.940733 26.250235 3.612418 44.793979 28.176858 40.940734 54.427093-3.37159 24.082785-24.082785 41.422389-47.683913 41.422389z m0-81.881467c-7.224835 0-14.208843 2.408278-20.229539 6.743179-7.224835 5.53904-11.800564 13.245532-13.004704 22.156162-2.649106 18.302916 10.355597 35.401693 28.658514 38.0508 8.91063 1.204139 17.821261-0.963311 25.046096-6.502352s11.800564-13.245532 13.004703-22.156162-0.963311-17.821261-6.502352-25.046096-13.245532-11.800564-22.156161-13.004704c-1.685795 0-3.37159-0.240828-4.816557-0.240827z" p-id="4994"></path><path d="M442.159925 250.46096c-1.204139 0-2.167451 0-3.37159-0.240828-6.502352-0.963311-12.041392-4.334901-15.894638-9.392286-3.853246-5.057385-5.53904-11.559737-4.575729-17.821261 0.963311-6.502352 4.334901-12.041392 9.392286-15.894638 5.057385-3.853246 11.559737-5.53904 17.821261-4.575729 13.245532 1.926623 22.39699 13.968015 20.470366 27.213547-1.685795 12.041392-12.041392 20.711195-23.841956 20.711195z m0-40.940734c-3.612418 0-7.224835 1.204139-10.11477 3.37159-3.612418 2.649106-6.020696 6.74318-6.502352 11.078081-0.722484 4.575729 0.481656 8.91063 3.130762 12.523047s6.74318 6.020696 11.078081 6.502352c4.575729 0.722484 8.91063-0.481656 12.523048-3.130762s6.020696-6.74318 6.502352-11.078081c1.204139-9.151458-5.057385-17.821261-14.449671-19.025399-0.722484-0.240828-1.444967-0.240828-2.16745-0.240828zM374.728128 722.001881l-123.063029-198.9238c-2.167451-3.37159-0.963311-7.947319 2.408278-9.873942 3.37159-2.167451 7.947319-0.963311 9.873942 2.408279l123.063029 198.9238-12.28222 7.465663zM427.710254 725.373471c-2.408278 0-4.816557-1.204139-6.261524-3.37159L289.475071 508.146754c-2.167451-3.37159-0.963311-7.947319 2.408278-9.873941 3.37159-2.167451 7.947319-0.963311 9.873942 2.408278l132.214487 213.855127c2.167451 3.37159 0.963311 7.947319-2.408278 9.873942-1.204139 0.722484-2.408278 0.963311-3.853246 0.963311z" p-id="4995"></path><path d="M257.685795 525.968015c-26.491063 0-48.165569-21.674506-48.165569-48.165569s21.674506-48.165569 48.165569-48.165569 48.165569 21.674506 48.165569 48.165569-21.433678 48.165569-48.165569 48.165569z m0-81.881467c-18.543744 0-33.715898 15.172154-33.715898 33.715898s15.172154 33.715898 33.715898 33.715898 33.715898-15.172154 33.715898-33.715898-15.172154-33.715898-33.715898-33.715898z" p-id="4996"></path><path d="M257.685795 501.88523c-13.245532 0-24.082785-10.837253-24.082785-24.082784s10.837253-24.082785 24.082785-24.082785 24.082785 10.837253 24.082784 24.082785-10.596425 24.082785-24.082784 24.082784z m0-40.940733c-9.392286 0-16.857949 7.465663-16.857949 16.857949s7.465663 16.857949 16.857949 16.857949 16.857949-7.465663 16.857949-16.857949-7.465663-16.857949-16.857949-16.857949zM557.275635 479.247413c-1.685795 0-3.612418-0.722484-5.057385-1.926623-27.93603-26.731891-43.349012-62.61524-43.349012-101.388523 0-77.305738 62.856068-140.161806 140.161806-140.161806 37.328316 0 72.730009 14.690499 99.221073 41.181562 2.889934 2.889934 2.889934 7.224835 0 10.114769l-185.919097 190.253998c-1.204139 1.204139-3.130762 1.926623-5.057385 1.926623z m91.996237-229.268109c-69.35842 0-125.712135 56.353716-125.712135 125.712135 0 32.270931 12.041392 62.61524 33.956726 85.975541l175.563499-179.657573c-23.360301-20.711195-52.741298-32.030103-83.80809-32.030103zM704.662277 429.877705c-0.240828 0-0.722484 0-0.963312-0.240828l-33.956726-33.956726c-0.481656-0.481656-0.481656-1.204139 0-1.685795s1.204139-0.481656 1.685795 0l33.956726 33.956726c0.481656 0.481656 0.481656 1.204139 0 1.685795-0.240828 0.240828-0.481656 0.240828-0.722483 0.240828zM657.460019 479.006585c-0.481656 0-0.963311-0.240828-1.204139-0.963311l-14.449671-48.888053c-0.240828-0.722484 0.240828-1.204139 0.722483-1.444967 0.722484-0.240828 1.204139 0.240828 1.444967 0.722484l14.449671 48.888052c0.240828 0.722484-0.240828 1.204139-0.722483 1.444967 0 0.240828-0.240828 0.240828-0.240828 0.240828zM755.236124 379.303857h-0.240828l-50.573847-11.078081c-0.722484-0.240828-0.963311-0.722484-0.963312-1.444967 0.240828-0.722484 0.722484-0.963311 1.444967-0.963311l50.573848 11.078081c0.722484 0.240828 0.963311 0.722484 0.963311 1.444967-0.240828 0.481656-0.722484 0.963311-1.204139 0.963311z" p-id="4997"></path></svg>