<svg t="1733147650323" class="icon" viewBox="0 0 1024 1024" version="1.1" xmlns="http://www.w3.org/2000/svg" p-id="10478" width="200" height="200"><path d="M298.666667 853.333333h597.333333V170.666667H298.666667v213.333333H170.666667v469.333333h85.333333V384h42.666667v469.333333zM298.666667 128h597.333333a42.666667 42.666667 0 0 1 42.666667 42.666667v682.666666a42.666667 42.666667 0 0 1-42.666667 42.666667H170.666667a42.666667 42.666667 0 0 1-42.666667-42.666667V384a42.666667 42.666667 0 0 1 42.666667-42.666667h85.333333V170.666667a42.666667 42.666667 0 0 1 42.666667-42.666667z" p-id="10479"></path><path d="M485.504 699.648l120.661333-120.661333 30.165334 30.165333-120.661334 120.704a85.333333 85.333333 0 1 1-120.661333-120.661333l120.661333-120.746667 30.165334 30.208-120.661334 120.661333a42.666667 42.666667 0 1 0 60.330667 60.330667z m331.861333-392.192a85.333333 85.333333 0 0 1 0 120.661333l-120.661333 120.704-30.208-30.165333 120.704-120.704a42.666667 42.666667 0 0 0-60.330667-60.330667l-120.704 120.704-30.165333-30.208 120.704-120.661333a85.333333 85.333333 0 0 1 120.661333 0z" p-id="10480"></path><path d="M470.4 624.213333l241.365333-241.322666 30.165334 30.165333-241.365334 241.365333z" p-id="10481"></path></svg>