<svg t="1734438575325" class="icon" viewBox="0 0 1024 1024" version="1.1" xmlns="http://www.w3.org/2000/svg" p-id="17904" width="200" height="200"><path d="M42.666667 149.333333a21.333333 21.333333 0 0 1 21.333333-21.333333h256a21.333333 21.333333 0 0 1 0 42.666667H64a21.333333 21.333333 0 0 1-21.333333-21.333334z m21.333333 405.333334h256a21.333333 21.333333 0 0 0 0-42.666667H64a21.333333 21.333333 0 0 0 0 42.666667z m896 341.333333H64a21.333333 21.333333 0 0 0 0 42.666667h896a21.333333 21.333333 0 0 0 0-42.666667zM512 298.666667c0-117.82 95.513333-213.333333 213.333333-213.333334s213.333333 95.513333 213.333334 213.333334a212.406667 212.406667 0 0 1-48.16 135.006666l84.58 84.573334a21.333333 21.333333 0 0 1-30.173334 30.173333l-84.573333-84.58A212.406667 212.406667 0 0 1 725.333333 512c-117.82 0-213.333333-95.513333-213.333333-213.333333z m42.666667 0c0 94.253333 76.413333 170.666667 170.666666 170.666666s170.666667-76.413333 170.666667-170.666666-76.413333-170.666667-170.666667-170.666667-170.666667 76.413333-170.666666 170.666667z" p-id="17905"></path></svg>