<svg t="1733147738532" class="icon" viewBox="0 0 1024 1024" version="1.1" xmlns="http://www.w3.org/2000/svg" p-id="11929" width="200" height="200"><path d="M512 1024C229.232 1024 0 794.768 0 512 0 229.232 229.232 0 512 0 794.768 0 1024 229.232 1024 512 1024 794.768 794.768 1024 512 1024ZM512 32C246.896 32 32 246.896 32 512 32 777.104 246.896 992 512 992 777.104 992 992 777.104 992 512 992 246.896 777.104 32 512 32ZM496 448 640 288 736 384 576 528 496 448ZM639.504 325.472 528 448 576 496 700.272 385.376 639.504 325.472ZM484.64 673.232 324.816 733.648 313.264 721.744 367.04 545.664 471.952 485.232 542.848 560.464 484.64 673.232ZM336.576 703.776 336.224 703.408 336 704 336.576 703.776ZM464 512 386.608 568.32 342.736 685.952 425.936 602.752 437.248 614.064 354.512 696.8 464.032 654.208 512 560 464 512Z" p-id="11930"></path></svg>