<?xml version="1.0" standalone="no"?><!DOCTYPE svg PUBLIC "-//W3C//DTD SVG 1.1//EN" "http://www.w3.org/Graphics/SVG/1.1/DTD/svg11.dtd"><svg t="1719108792645" class="icon" viewBox="0 0 1031 1024" version="1.1" xmlns="http://www.w3.org/2000/svg" p-id="1467" xmlns:xlink="http://www.w3.org/1999/xlink" width="201.3671875" height="200"><path d="M1016.599899 327.309392a29.927762 29.927762 0 0 1 8.319934 41.575668l-66.815468 99.839205a30.12776 30.12776 0 0 1-19.175847 12.783898c-14.367886 2.855977-22.54382-4.423965-32.703739-11.199911v523.619828a30.05576 30.05576 0 0 1-30.11976 29.999761H155.886758a30.05576 30.05576 0 0 1-30.11976-29.999761V470.308252l-10.07992 6.719947a30.199759 30.199759 0 0 1-41.799667-8.303934L7.063944 368.88506a29.927762 29.927762 0 0 1 8.327933-41.583668L499.260022 5.127959a30.207759 30.207759 0 0 1 33.471733 0l192.078469 127.886981V72.167425a30.05576 30.05576 0 0 1 30.11176-29.999761h120.46304a30.05576 30.05576 0 0 1 30.11976 29.999761v181.166556l111.095115 73.975411zM785.033744 101.775189v71.151433l60.23952 40.10368V101.775189h-60.23952zM515.995888 363.9331c149.678807 0 269.75785 121.055035 269.757851 269.997848 0 149.094812-120.239042 269.997848-269.757851 269.997849-149.678807 0-269.75785-121.055035-269.75785-269.997849 0-149.102812 120.247042-269.997848 269.75785-269.997848z m119.18305 239.998087a30.05576 30.05576 0 0 1 30.11176 29.999761 30.05576 30.05576 0 0 1-30.11176 29.999761H515.995888a30.05576 30.05576 0 0 1-30.11176-29.999761v-119.999043a30.05576 30.05576 0 0 1 30.11176-29.999761 30.05576 30.05576 0 0 1 30.11976 29.999761v89.999282h89.06329z m-119.18305 239.998088c115.535079 0 209.52633-94.207249 209.52633-209.998327s-93.991251-209.998327-209.51833-209.998326c-115.535079 0-209.53433 94.207249-209.53433 209.998326s93.999251 209.998327 209.52633 209.998327z m329.99737 119.999044V430.180572L515.995888 210.358324 185.998518 430.180572v533.747747h659.99474z m78.719373-553.47559l33.407734-49.919602L515.995888 66.159473 73.871411 360.533127l33.407734 49.919602 391.980877-261.117919a30.16776 30.16776 0 0 1 33.479733 0l391.980876 261.117919z" p-id="1468"></path></svg>