<svg t="1733147211544" class="icon" viewBox="0 0 1024 1024" version="1.1" xmlns="http://www.w3.org/2000/svg" p-id="4679" width="200" height="200"><path d="M1023.938564 119.104534c-0.614363-32.376937-14.048437-61.866368-37.240646-83.84009A128.965062 128.965062 0 0 0 898.16819 0L125.16625 1.157051c-29.919485 0-54.34042 23.130772-54.34042 51.452912v116.790433h-34.199548C16.485411 169.400396 0 185.025698 0 204.091435c0 19.086215 16.485411 34.691039 36.636522 34.691038h34.189308v130.091395h-34.199548C16.485411 368.873868 0 384.478691 0 403.564906c0 19.075975 16.485411 34.691039 36.636522 34.691039h34.189308v130.081155h-33.585184C17.099774 568.3371 0.614363 583.952163 0.614363 603.028138c0 19.086215 16.485411 34.691039 36.626283 34.691039h33.585184v130.091394h-33.585184C17.099774 767.810571 0.614363 783.415395 0.614363 802.50161c0 19.075975 16.485411 34.691039 36.626283 34.691038h33.585184v135.282763c0 28.342619 24.420935 51.463152 54.34042 51.463153l773.606064-0.583645c68.99298 0 125.16625-53.183369 125.16625-118.520889V119.104534zM824.843949 53.889887h85.324801c32.32574 0.583645 56.879787 22.055637 56.879787 49.917005V891.440914c0 28.434774-25.209367 51.657701-56.879787 51.6577h-85.324801V53.889887z m-578.83247 734.716877c0-19.16813-16.383017-34.854869-36.421494-34.854869h-66.760795V623.6605h66.760795c20.028238 0 36.421495-15.686739 36.421494-34.844629 0-19.178369-16.383017-34.854869-36.421494-34.854869h-66.760795V423.275723h66.760795c20.028238 0 36.421495-15.676499 36.421494-34.844629s-16.383017-34.844629-36.421494-34.844629h-66.156671V222.901186h66.146431c20.038478 0 36.431734-15.676499 36.431734-34.844629s-16.383017-34.854869-36.421494-34.854869h-65.562787v-81.300722c0-9.881007 8.49869-18.011079 18.819991-18.011079h576.66172v889.208727H161.638942c-10.925424 0-19.424115-8.130072-19.424115-18.584485v-101.062736h67.375158c20.028238 0 36.421495-15.676499 36.421494-34.844629z" p-id="4680"></path></svg>