<svg t="1740710641004" class="icon" viewBox="0 0 1024 1024" version="1.1" xmlns="http://www.w3.org/2000/svg" p-id="3377" width="200" height="200"><path d="M512 175.264768c154.33728 14.030848 274.234368 70.15424 359.694336 168.368128C957.15328 441.84576 1000.51968 497.970176 1001.795584 512c-1.27488 14.030848-44.642304 70.153216-130.101248 168.367104C786.234368 778.582016 666.336256 834.704384 512 848.735232c-154.33728-14.030848-274.234368-70.15424-359.694336-168.368128C66.84672 582.15424 23.48032 526.029824 22.203392 512c1.275904-14.030848 44.643328-70.153216 130.102272-168.367104C237.765632 245.417984 357.66272 189.295616 512 175.264768z m0 61.22496c-108.418048 7.0144-198.66112 43.527168-270.727168 109.534208C169.206784 412.030976 120.098816 467.357696 93.950976 512c26.14784 44.643328 75.255808 99.968 147.321856 165.976064C313.33888 743.983104 403.581952 780.494848 512 787.510272c108.418048-7.0144 198.66112-43.527168 270.727168-109.534208 72.066048-66.00704 121.172992-121.33376 147.321856-165.976064-26.148864-44.643328-75.255808-99.968-147.321856-165.976064C710.66112 280.016896 620.418048 243.505152 512 236.489728z m0 61.22496c60.587008 1.27488 111.128576 22.161408 151.626752 62.65856 40.497152 40.498176 61.38368 91.039744 62.65856 151.626752-1.27488 60.587008-22.161408 111.128576-62.65856 151.626752-40.498176 40.497152-91.039744 61.38368-151.626752 62.65856-60.587008-1.27488-111.128576-22.161408-151.626752-62.65856-40.497152-40.498176-61.38368-91.039744-62.65856-151.626752 1.27488-60.587008 22.161408-111.128576 62.65856-151.626752 40.498176-40.497152 91.039744-61.38368 151.626752-62.65856z m0 61.22496c-43.367424 1.27488-79.40096 16.26112-108.099584 44.960768C375.201792 432.59904 360.214528 468.6336 358.938624 512c1.275904 43.367424 16.263168 79.40096 44.961792 108.099584 28.698624 28.698624 64.73216 43.685888 108.099584 44.961792 43.3664-1.275904 79.40096-16.263168 108.099584-44.961792 28.698624-28.698624 43.685888-64.73216 44.961792-108.099584-1.275904-43.3664-16.263168-79.40096-44.961792-108.099584C591.40096 375.201792 555.3664 360.214528 512 358.938624z" p-id="3378"></path></svg>